<svg width="18" height="18" viewBox="0 0 18 18" fill="none" xmlns="http://www.w3.org/2000/svg">
<path d="M16.0179 4.69406L16.0122 4.70039L11.25 9.78539V13.687C11.2503 13.8726 11.2046 14.0553 11.1172 14.219C11.0297 14.3827 10.9031 14.5221 10.7487 14.625L8.49865 16.1255C8.3291 16.2384 8.13205 16.3032 7.92856 16.3129C7.72506 16.3226 7.52274 16.2769 7.34321 16.1806C7.16368 16.0843 7.01367 15.941 6.90919 15.7661C6.80471 15.5912 6.74968 15.3912 6.74998 15.1875V9.78539L1.98772 4.70039L1.98209 4.69406C1.83566 4.53292 1.73914 4.33274 1.70424 4.11782C1.66934 3.9029 1.69756 3.68247 1.78547 3.48327C1.87339 3.28407 2.01722 3.11466 2.19951 2.9956C2.38181 2.87653 2.59475 2.81293 2.81248 2.8125H15.1875C15.4054 2.81252 15.6186 2.87583 15.8012 2.99474C15.9838 3.11364 16.128 3.28303 16.2162 3.48231C16.3043 3.68159 16.3327 3.90219 16.2979 4.1173C16.2631 4.33241 16.1665 4.53278 16.02 4.69406H16.0179Z" fill="#121212"/>
</svg>
