<svg width="30" height="30" viewBox="0 0 30 30" fill="none" xmlns="http://www.w3.org/2000/svg">
<rect width="30" height="30" rx="10" fill="#F4F7FF"/>
<path d="M15 7.125C13.3595 7.12686 11.7868 7.77935 10.6268 8.93933C9.46685 10.0993 8.81436 11.672 8.8125 13.3125C8.8125 18.607 14.4375 22.6057 14.6773 22.773C14.7718 22.8393 14.8845 22.8748 15 22.8748C15.1155 22.8748 15.2282 22.8393 15.3227 22.773C15.5625 22.6057 21.1875 18.607 21.1875 13.3125C21.1856 11.672 20.5331 10.0993 19.3732 8.93933C18.2132 7.77935 16.6405 7.12686 15 7.125ZM15 11.0625C15.445 11.0625 15.88 11.1945 16.25 11.4417C16.62 11.6889 16.9084 12.0403 17.0787 12.4515C17.249 12.8626 17.2936 13.315 17.2068 13.7515C17.12 14.1879 16.9057 14.5888 16.591 14.9035C16.2763 15.2182 15.8754 15.4325 15.439 15.5193C15.0025 15.6061 14.5501 15.5615 14.139 15.3912C13.7278 15.2209 13.3764 14.9325 13.1292 14.5625C12.882 14.1925 12.75 13.7575 12.75 13.3125C12.75 12.7158 12.9871 12.1435 13.409 11.7215C13.831 11.2996 14.4033 11.0625 15 11.0625Z" fill="#012AE4"/>
</svg>
