<svg width="30" height="30" viewBox="0 0 30 30" fill="none" xmlns="http://www.w3.org/2000/svg">
<rect width="30" height="30" rx="10" fill="#F4F7FF"/>
<path d="M21.75 9.09375H8.25C8.02622 9.09375 7.81161 9.18264 7.65338 9.34088C7.49514 9.49911 7.40625 9.71372 7.40625 9.9375V19.5C7.40625 19.873 7.55441 20.2306 7.81813 20.4944C8.08185 20.7581 8.43954 20.9062 8.8125 20.9062H21.1875C21.5605 20.9062 21.9181 20.7581 22.1819 20.4944C22.4456 20.2306 22.5938 19.873 22.5938 19.5V9.9375C22.5938 9.71372 22.5049 9.49911 22.3466 9.34088C22.1884 9.18264 21.9738 9.09375 21.75 9.09375ZM19.5809 10.7812L15 14.9803L10.4191 10.7812H19.5809ZM9.09375 19.2188V11.8556L14.4298 16.7473C14.5854 16.89 14.7889 16.9691 15 16.9691C15.2111 16.9691 15.4146 16.89 15.5702 16.7473L20.9062 11.8556V19.2188H9.09375Z" fill="#012AE4"/>
</svg>
