<svg width="30" height="30" viewBox="0 0 30 30" fill="none" xmlns="http://www.w3.org/2000/svg">
<rect width="30" height="30" rx="10" fill="#121212"/>
<path d="M21.75 16.8844L18.439 15.4001L18.4263 15.3945C18.2111 15.3017 17.9761 15.2644 17.7427 15.2859C17.5093 15.3074 17.285 15.387 17.0904 15.5176C17.0631 15.5358 17.0368 15.5555 17.0116 15.5766L15.443 16.9126C14.5289 16.4169 13.5846 15.4803 13.0882 14.5775L14.4284 12.9842C14.4499 12.9585 14.4699 12.9315 14.4881 12.9033C14.6152 12.7094 14.6924 12.487 14.7128 12.256C14.7331 12.025 14.6961 11.7926 14.6048 11.5794C14.6027 11.5753 14.6008 11.571 14.5992 11.5667L13.1156 8.25006C12.9939 7.97269 12.786 7.7419 12.5229 7.59184C12.2597 7.44178 11.9553 7.38043 11.6545 7.41685C10.6339 7.55094 9.69689 8.05197 9.01862 8.82638C8.34035 9.60079 7.96716 10.5956 7.96876 11.6251C7.96876 17.3633 12.6368 22.0313 18.375 22.0313C19.4045 22.0329 20.3993 21.6597 21.1737 20.9814C21.9481 20.3032 22.4491 19.3662 22.5832 18.3455C22.6196 18.0448 22.5583 17.7403 22.4082 17.4772C22.2582 17.2141 22.0274 17.0062 21.75 16.8844ZM18.375 20.3438C16.0635 20.341 13.8475 19.4215 12.213 17.7871C10.5785 16.1526 9.65905 13.9366 9.65626 11.6251C9.65464 11.0425 9.85241 10.477 10.2167 10.0224C10.581 9.56777 11.0899 9.25152 11.6588 9.12615L12.982 12.0793L11.6348 13.6838C11.6131 13.7098 11.5929 13.737 11.5744 13.7654C11.4416 13.9683 11.3635 14.202 11.3478 14.444C11.332 14.686 11.3791 14.9279 11.4844 15.1463C12.1467 16.5019 13.5115 17.8576 14.8812 18.5213C15.101 18.6255 15.3442 18.6709 15.5869 18.6531C15.8295 18.6352 16.0634 18.5547 16.2656 18.4194C16.2928 18.401 16.3189 18.3811 16.3437 18.3596L17.9208 17.0187L20.8739 18.3413C20.7485 18.9102 20.4323 19.4191 19.9777 19.7834C19.5231 20.1476 18.9575 20.3454 18.375 20.3438Z" fill="#F0F0F0"/>
</svg>
