<svg width="1400" height="359" viewBox="0 0 1400 359" fill="none" xmlns="http://www.w3.org/2000/svg">
<g clip-path="url(#clip0_190_2)">
<rect width="1400" height="359" rx="40" fill="#F4F7FF"/>
<path d="M1060 140C1060 84.7715 1104.77 40 1160 40H1432C1448.57 40 1462 53.4315 1462 70V341C1462 396.228 1417.23 441 1362 441H1090C1073.43 441 1060 427.569 1060 411V140Z" fill="#012AE4"/>
<rect x="1010" y="142" width="100" height="99" rx="49.5" fill="#F4F7FF"/>
<path d="M993.018 257.097C996.841 250.301 1006.63 250.301 1010.45 257.097L1059.17 343.701C1062.92 350.367 1058.1 358.604 1050.45 358.604H953.015C945.366 358.604 940.549 350.367 944.299 343.701L993.018 257.097Z" fill="#012AE4"/>
<path d="M934.449 348.507C930.626 355.303 920.841 355.303 917.018 348.507L868.299 261.903C864.549 255.237 869.366 247 877.015 247H974.452C982.101 247 986.918 255.237 983.168 261.903L934.449 348.507Z" fill="#012AE4"/>
<rect x="876" y="180" width="100" height="99" rx="49.5" fill="#F4F7FF"/>
</g>
<defs>
<clipPath id="clip0_190_2">
<rect width="1400" height="359" rx="40" fill="white"/>
</clipPath>
</defs>
</svg>
