<svg width="18" height="18" viewBox="0 0 18 18" fill="none" xmlns="http://www.w3.org/2000/svg">
<path d="M16.4735 8.07538L13.3095 10.8056L14.2734 14.8887C14.3266 15.1103 14.3129 15.3428 14.2341 15.5566C14.1552 15.7705 14.0148 15.9562 13.8304 16.0903C13.6461 16.2244 13.4261 16.3008 13.1984 16.3099C12.9706 16.3191 12.7453 16.2605 12.5508 16.1416L9 13.9563L5.44711 16.1416C5.25265 16.2598 5.02756 16.3178 4.80019 16.3084C4.57283 16.2989 4.35335 16.2223 4.16939 16.0884C3.98544 15.9544 3.84524 15.769 3.76644 15.5555C3.68763 15.342 3.67376 15.11 3.72656 14.8887L4.69406 10.8056L1.53 8.07538C1.35795 7.92668 1.23351 7.73058 1.17224 7.51158C1.11097 7.29258 1.11557 7.06038 1.18548 6.84398C1.25539 6.62758 1.3875 6.43657 1.56532 6.29481C1.74314 6.15304 1.95878 6.06681 2.18531 6.04687L6.33375 5.71218L7.93406 1.83937C8.02069 1.6283 8.16811 1.44776 8.35761 1.3207C8.5471 1.19364 8.77009 1.12579 8.99824 1.12579C9.22639 1.12579 9.44939 1.19364 9.63888 1.3207C9.82837 1.44776 9.9758 1.6283 10.0624 1.83937L11.662 5.71218L15.8105 6.04687C16.0375 6.06607 16.2537 6.15182 16.4322 6.29339C16.6107 6.43496 16.7434 6.62604 16.8137 6.8427C16.8841 7.05937 16.8889 7.29197 16.8276 7.51137C16.7664 7.73077 16.6417 7.92722 16.4693 8.07609L16.4735 8.07538Z" fill="#F5F5F5"/>
</svg>
