<svg width="40" height="40" viewBox="0 0 40 40" fill="none" xmlns="http://www.w3.org/2000/svg">
<rect width="40" height="40" rx="20" fill="#121212"/>
<path d="M26.5312 14.5V23.4375C26.5312 23.711 26.4226 23.9733 26.2292 24.1667C26.0358 24.3601 25.7735 24.4688 25.5 24.4688C25.2265 24.4688 24.9642 24.3601 24.7708 24.1667C24.5774 23.9733 24.4687 23.711 24.4687 23.4375V16.9922L15.2296 26.2296C15.0358 26.4233 14.7731 26.5322 14.4991 26.5322C14.2251 26.5322 13.9624 26.4233 13.7686 26.2296C13.5749 26.0359 13.4661 25.7731 13.4661 25.4991C13.4661 25.2252 13.5749 24.9624 13.7686 24.7687L23.0078 15.5313H16.5625C16.289 15.5313 16.0267 15.4226 15.8333 15.2292C15.6399 15.0358 15.5312 14.7735 15.5312 14.5C15.5312 14.2265 15.6399 13.9642 15.8333 13.7708C16.0267 13.5774 16.289 13.4688 16.5625 13.4688H25.5C25.7735 13.4688 26.0358 13.5774 26.2292 13.7708C26.4226 13.9642 26.5312 14.2265 26.5312 14.5Z" fill="#F5F5F5"/>
</svg>
