<svg width="40" height="40" viewBox="0 0 40 40" fill="none" xmlns="http://www.w3.org/2000/svg">
<rect width="40" height="40" rx="20" fill="#121212" fill-opacity="0.7"/>
<path d="M28.5073 20.7302L22.1875 27.05C21.9941 27.2434 21.7318 27.352 21.4583 27.352C21.1848 27.352 20.9225 27.2434 20.7291 27.05C20.5357 26.8566 20.4271 26.5943 20.4271 26.3208C20.4271 26.0473 20.5357 25.785 20.7291 25.5916L25.2866 21.0341L12.2217 21.0329C11.9478 21.0329 11.685 20.924 11.4913 20.7303C11.2975 20.5366 11.1887 20.2738 11.1887 19.9998C11.1887 19.7258 11.2975 19.4631 11.4913 19.2693C11.685 19.0756 11.9478 18.9668 12.2217 18.9668L25.2866 18.968L20.7291 14.4105C20.5357 14.2171 20.4271 13.9548 20.4271 13.6813C20.4271 13.4078 20.5357 13.1455 20.7291 12.9521C20.9225 12.7587 21.1848 12.65 21.4583 12.65C21.7318 12.65 21.9941 12.7587 22.1875 12.9521L28.5073 19.2718C28.7007 19.4652 28.8093 19.7275 28.8093 20.001C28.8093 20.2745 28.7007 20.5368 28.5073 20.7302Z" fill="#F5F5F5"/>
</svg>
