<svg width="31" height="31" viewBox="0 0 31 31" fill="none" xmlns="http://www.w3.org/2000/svg">
<path d="M27.4876 16.529L18.5825 25.4342C18.31 25.7067 17.9404 25.8598 17.555 25.8598C17.1696 25.8598 16.8 25.7067 16.5275 25.4342C16.255 25.1617 16.1019 24.792 16.1019 24.4067C16.1019 24.0213 16.255 23.6517 16.5275 23.3791L22.9494 16.9572L4.5398 16.9555C4.15373 16.9555 3.78349 16.8021 3.5105 16.5291C3.23751 16.2561 3.08415 15.8859 3.08415 15.4998C3.08415 15.1138 3.23751 14.7435 3.5105 14.4705C3.78349 14.1975 4.15374 14.0442 4.5398 14.0442L22.9494 14.0459L16.5275 7.62392C16.255 7.3514 16.1019 6.98179 16.1019 6.5964C16.1019 6.21101 16.255 5.8414 16.5275 5.56889C16.8 5.29637 17.1696 5.14328 17.555 5.14328C17.9404 5.14328 18.31 5.29637 18.5825 5.56889L27.4876 14.474C27.7601 14.7465 27.9132 15.1161 27.9132 15.5015C27.9132 15.8869 27.7601 16.2565 27.4876 16.529Z" fill="#121212"/>
</svg>
