<svg width="30" height="30" viewBox="0 0 30 30" fill="none" xmlns="http://www.w3.org/2000/svg">
<rect width="30" height="30" rx="10" fill="#121212"/>
<path d="M14.8017 17.0348C15.5084 16.4408 16.0153 15.6439 16.2537 14.752C16.492 13.8601 16.4503 12.9166 16.1342 12.0492C15.8181 11.1818 15.2429 10.4327 14.4866 9.90336C13.7302 9.37401 12.8294 9.09009 11.9063 9.09009C10.9831 9.09009 10.0823 9.37401 9.32594 9.90336C8.56962 10.4327 7.9944 11.1818 7.67829 12.0492C7.36218 12.9166 7.32048 13.8601 7.55885 14.752C7.79721 15.6439 8.3041 16.4408 9.01078 17.0348C7.90729 17.5338 6.95099 18.3087 6.23414 19.2848C6.10174 19.4653 6.04644 19.6909 6.08039 19.9121C6.11434 20.1333 6.23478 20.3319 6.4152 20.4643C6.59562 20.5967 6.82124 20.652 7.04244 20.6181C7.26364 20.5841 7.46229 20.4637 7.59469 20.2833C8.09091 19.6055 8.73991 19.0544 9.48903 18.6744C10.2381 18.2944 11.0663 18.0964 11.9063 18.0964C12.7462 18.0964 13.5744 18.2944 14.3235 18.6744C15.0726 19.0544 15.7216 19.6055 16.2178 20.2833C16.3502 20.4638 16.5489 20.5843 16.7702 20.6183C16.9914 20.6523 17.2171 20.5971 17.3977 20.4647C17.5782 20.3323 17.6987 20.1336 17.7327 19.9123C17.7667 19.6911 17.7115 19.4653 17.5791 19.2848C16.8618 18.3088 15.9053 17.534 14.8017 17.0348ZM9.09375 13.5937C9.09375 13.0375 9.2587 12.4937 9.56774 12.0312C9.87679 11.5687 10.316 11.2082 10.83 10.9953C11.3439 10.7825 11.9094 10.7268 12.4549 10.8353C13.0005 10.9438 13.5017 11.2117 13.895 11.605C14.2883 11.9983 14.5562 12.4995 14.6647 13.045C14.7732 13.5906 14.7175 14.1561 14.5047 14.67C14.2918 15.184 13.9313 15.6232 13.4688 15.9322C13.0063 16.2413 12.4625 16.4062 11.9063 16.4062C11.1603 16.4062 10.445 16.1099 9.91752 15.5825C9.39007 15.055 9.09375 14.3397 9.09375 13.5937ZM23.5852 20.4612C23.4958 20.5268 23.3945 20.5742 23.2868 20.6006C23.1792 20.6271 23.0674 20.632 22.9578 20.6153C22.8482 20.5985 22.743 20.5603 22.6482 20.5028C22.5534 20.4454 22.4709 20.3698 22.4053 20.2805C21.9079 19.604 21.2586 19.0538 20.5098 18.674C19.7609 18.2942 18.9334 18.0955 18.0938 18.0937C17.87 18.0937 17.6554 18.0048 17.4971 17.8466C17.3389 17.6884 17.25 17.4738 17.25 17.25C17.25 17.0262 17.3389 16.8116 17.4971 16.6534C17.6554 16.4951 17.87 16.4062 18.0938 16.4062C18.4935 16.4055 18.8885 16.3196 19.2524 16.1542C19.6164 15.9888 19.9409 15.7477 20.2043 15.447C20.4677 15.1463 20.664 14.7929 20.7801 14.4104C20.8961 14.0279 20.9293 13.625 20.8774 13.2286C20.8255 12.8323 20.6897 12.4515 20.4791 12.1117C20.2685 11.772 19.9878 11.481 19.6559 11.2583C19.3239 11.0356 18.9483 10.8861 18.5541 10.82C18.1598 10.7539 17.756 10.7725 17.3695 10.8748C17.2616 10.906 17.1485 10.9153 17.0369 10.9023C16.9253 10.8892 16.8174 10.854 16.7196 10.7986C16.6218 10.7433 16.5361 10.669 16.4674 10.5801C16.3987 10.4912 16.3484 10.3895 16.3196 10.2809C16.2907 10.1723 16.2839 10.059 16.2994 9.94771C16.3149 9.83642 16.3525 9.72935 16.41 9.63279C16.4674 9.53623 16.5436 9.45212 16.634 9.38539C16.7244 9.31866 16.8272 9.27066 16.9364 9.24421C17.9246 8.98236 18.9725 9.06481 19.9076 9.47798C20.8428 9.89114 21.6093 10.6104 22.0811 11.5173C22.5529 12.4243 22.7018 13.4648 22.5034 14.4677C22.3049 15.4706 21.7709 16.376 20.9892 17.0348C22.0927 17.5338 23.049 18.3087 23.7659 19.2848C23.8973 19.465 23.9521 19.6899 23.9182 19.9103C23.8844 20.1307 23.7646 20.3288 23.5852 20.4612Z" fill="#F4F7FF"/>
</svg>
