<svg width="30" height="30" viewBox="0 0 30 30" fill="none" xmlns="http://www.w3.org/2000/svg">
<rect width="30" height="30" rx="10" fill="#121212"/>
<path d="M14.2392 19.2708C14.3179 19.3491 14.3803 19.4423 14.4229 19.5448C14.4655 19.6474 14.4874 19.7574 14.4874 19.8684C14.4874 19.9795 14.4655 20.0894 14.4229 20.192C14.3803 20.2945 14.3179 20.3877 14.2392 20.4661L13.8792 20.8261C13.4971 21.2096 13.0427 21.5136 12.5423 21.7205C12.0419 21.9274 11.5055 22.033 10.9641 22.0312C10.1487 22.0315 9.35154 21.7899 8.67348 21.337C7.99542 20.8841 7.46693 20.2403 7.15486 19.487C6.84278 18.7337 6.76116 17.9047 6.92031 17.105C7.07945 16.3053 7.47222 15.5708 8.04892 14.9943L10.4923 12.551C11.012 12.0314 11.6611 11.6601 12.3725 11.4756C13.0839 11.2911 13.8317 11.3001 14.5384 11.5017C15.2451 11.7032 15.8852 12.09 16.3922 12.622C16.8992 13.154 17.2549 13.8119 17.4223 14.5275C17.45 14.6363 17.4557 14.7495 17.4391 14.8606C17.4225 14.9716 17.3839 15.0782 17.3256 15.1742C17.2673 15.2701 17.1904 15.3534 17.0994 15.4193C17.0085 15.4851 16.9053 15.5322 16.796 15.5576C16.6866 15.5831 16.5733 15.5864 16.4626 15.5675C16.3519 15.5486 16.2461 15.5078 16.1514 15.4475C16.0567 15.3872 15.975 15.3086 15.9111 15.2163C15.8471 15.124 15.8023 15.0198 15.7791 14.91C15.6797 14.4876 15.4694 14.0993 15.1697 13.7855C14.8701 13.4716 14.4921 13.2434 14.0747 13.1246C13.6574 13.0057 13.2159 13.0005 12.7958 13.1094C12.3758 13.2183 11.9925 13.4375 11.6855 13.7442L9.24212 16.1876C8.90154 16.5279 8.66952 16.9615 8.57541 17.4337C8.4813 17.9059 8.52933 18.3954 8.71343 18.8403C8.89752 19.2851 9.20941 19.6654 9.60965 19.9331C10.0099 20.2007 10.4805 20.3436 10.962 20.3437C11.2819 20.3446 11.5988 20.2821 11.8943 20.1597C12.1899 20.0373 12.4583 19.8575 12.6839 19.6308L13.0432 19.2708C13.1216 19.192 13.2148 19.1295 13.3174 19.0868C13.4201 19.0442 13.5301 19.0222 13.6412 19.0222C13.7524 19.0222 13.8624 19.0442 13.965 19.0868C14.0676 19.1295 14.1608 19.192 14.2392 19.2708ZM21.949 9.17599C21.1757 8.40292 20.127 7.96863 19.0335 7.96863C17.94 7.96863 16.8913 8.40292 16.118 9.17599L15.7587 9.53529C15.6002 9.6938 15.5111 9.90878 15.5111 10.1329C15.5111 10.3571 15.6002 10.5721 15.7587 10.7306C15.9172 10.8891 16.1322 10.9782 16.3563 10.9782C16.5805 10.9782 16.7955 10.8891 16.954 10.7306L17.314 10.3706C17.7709 9.91372 18.3905 9.65705 19.0367 9.65705C19.6828 9.65705 20.3024 9.91372 20.7593 10.3706C21.2162 10.8275 21.4729 11.4471 21.4729 12.0933C21.4729 12.7394 21.2162 13.359 20.7593 13.8159L18.3117 16.2558C18.0861 16.4826 17.8178 16.6624 17.5222 16.7848C17.2266 16.9072 16.9097 16.9697 16.5898 16.9687C16.041 16.9683 15.5084 16.7826 15.0784 16.4415C14.6485 16.1005 14.3463 15.6243 14.221 15.09C14.1702 14.872 14.035 14.6831 13.845 14.5648C13.655 14.4465 13.4257 14.4085 13.2077 14.4593C12.9898 14.51 12.8008 14.6452 12.6826 14.8352C12.5643 15.0253 12.5263 15.2545 12.577 15.4725C12.7888 16.3773 13.2999 17.1841 14.0277 17.762C14.7554 18.3399 15.657 18.655 16.5863 18.6562H16.5898C17.1315 18.6577 17.6681 18.5518 18.1686 18.3446C18.6691 18.1373 19.1235 17.8329 19.5056 17.449L21.949 15.0056C22.3318 14.6229 22.6355 14.1684 22.8427 13.6683C23.0499 13.1682 23.1565 12.6321 23.1565 12.0908C23.1565 11.5494 23.0499 11.0134 22.8427 10.5133C22.6355 10.0132 22.3318 9.55874 21.949 9.17599Z" fill="#F4F7FF"/>
</svg>
